<mxfile host="app.diagrams.net" agent="Mozilla/5.0 (Windows NT 10.0; Win64; x64) AppleWebKit/537.36 (KHTML, like Gecko) Chrome/133.0.0.0 Safari/537.36" version="26.0.16">
  <diagram id="codeviz-diagram" name="System Diagram">
    <mxGraphModel dx="3816" dy="1373" grid="1" gridSize="10" guides="1" tooltips="1" connect="1" arrows="1" fold="1" page="1" pageScale="1" pageWidth="1169" pageHeight="827" math="0" shadow="0">
      <root>
        <mxCell id="0" />
        <mxCell id="1" parent="0" />
        <mxCell id="subGraph7" value="" style="html=1;whiteSpace=wrap;container=1;fillColor=#dae8fc;strokeColor=#6c8ebf;dashed=1;fillOpacity=20;strokeWidth=2;containerType=none;recursiveResize=0;movable=1;resizable=1;autosize=0;dropTarget=0" parent="1" vertex="1">
          <mxGeometry x="-120" y="200" width="1191" height="1956" as="geometry" />
        </mxCell>
        <mxCell id="subGraph6_label" value="External Services" style="edgeLabel;html=1;align=center;verticalAlign=middle;resizable=0;labelBackgroundColor=white;spacing=5" parent="subGraph7" vertex="1">
          <mxGeometry x="745" y="1223" width="444" height="24" as="geometry" />
        </mxCell>
        <mxCell id="subGraph5_label" value="Data Storage" style="edgeLabel;html=1;align=center;verticalAlign=middle;resizable=0;labelBackgroundColor=white;spacing=5" parent="subGraph7" vertex="1">
          <mxGeometry x="385" y="1223" width="304" height="24" as="geometry" />
        </mxCell>
        <mxCell id="subGraph4" value="" style="html=1;whiteSpace=wrap;container=1;fillColor=#dae8fc;strokeColor=#6c8ebf;dashed=1;fillOpacity=20;strokeWidth=2;containerType=none;recursiveResize=0;movable=1;resizable=1;autosize=0;dropTarget=0" parent="subGraph7" vertex="1">
          <mxGeometry x="170" y="128" width="1131" height="1095" as="geometry" />
        </mxCell>
        <mxCell id="subGraph3" value="" style="html=1;whiteSpace=wrap;container=1;fillColor=#dae8fc;strokeColor=#6c8ebf;dashed=1;fillOpacity=20;strokeWidth=2;containerType=none;recursiveResize=0;movable=1;resizable=1;autosize=0;dropTarget=0" parent="subGraph4" vertex="1">
          <mxGeometry x="73" y="225" width="300" height="535" as="geometry" />
        </mxCell>
        <mxCell id="subGraph2" value="" style="html=1;whiteSpace=wrap;container=1;fillColor=#dae8fc;strokeColor=#6c8ebf;dashed=1;fillOpacity=20;strokeWidth=2;containerType=none;recursiveResize=0;movable=1;resizable=1;autosize=0;dropTarget=0" parent="subGraph3" vertex="1">
          <mxGeometry x="63" y="195" width="240" height="320" as="geometry" />
        </mxCell>
        <mxCell id="BERTModel" value="BERT Model&lt;br&gt;TensorFlow" style="rounded=1;whiteSpace=wrap;html=1;fillColor=#f5f5f5" parent="subGraph2" vertex="1">
          <mxGeometry x="40" y="120" width="120" height="60" as="geometry" />
        </mxCell>
        <mxCell id="TextClassifier" value="Text Classifier&lt;br&gt;Python" style="rounded=1;whiteSpace=wrap;html=1;fillColor=#f5f5f5" parent="subGraph2" vertex="1">
          <mxGeometry x="40" y="220" width="120" height="60" as="geometry" />
        </mxCell>
        <mxCell id="subGraph2_label" value="ML Components" style="edgeLabel;html=1;align=center;verticalAlign=middle;resizable=0;labelBackgroundColor=white;spacing=5" parent="subGraph3" vertex="1">
          <mxGeometry x="71" y="203" width="164" height="24" as="geometry" />
        </mxCell>
        <mxCell id="PythonServer" value="ML Server&lt;br&gt;Python/Flask" style="rounded=1;whiteSpace=wrap;html=1;fillColor=#f5f5f5" parent="subGraph3" vertex="1">
          <mxGeometry x="93" y="120" width="120" height="60" as="geometry" />
        </mxCell>
        <mxCell id="subGraph3_label" value="ML Service Container" style="edgeLabel;html=1;align=center;verticalAlign=middle;resizable=0;labelBackgroundColor=white;spacing=5" parent="subGraph4" vertex="1">
          <mxGeometry x="81" y="233" width="224" height="24" as="geometry" />
        </mxCell>
        <mxCell id="subGraph1" value="" style="html=1;whiteSpace=wrap;container=1;fillColor=#dae8fc;strokeColor=#6c8ebf;dashed=1;fillOpacity=20;strokeWidth=2;containerType=none;recursiveResize=0;movable=1;resizable=1;autosize=0;dropTarget=0" parent="subGraph4" vertex="1">
          <mxGeometry x="374" y="429.16666666666663" width="800" height="220" as="geometry" />
        </mxCell>
        <mxCell id="AuthService" value="Authentication Service&lt;br&gt;JWT" style="rounded=1;whiteSpace=wrap;html=1;fillColor=#f5f5f5" parent="subGraph1" vertex="1">
          <mxGeometry x="320" y="120" width="120" height="60" as="geometry" />
        </mxCell>
        <mxCell id="UserManager" value="User Manager&lt;br&gt;Express Router" style="rounded=1;whiteSpace=wrap;html=1;fillColor=#f5f5f5" parent="subGraph1" vertex="1">
          <mxGeometry x="180" y="120" width="120" height="60" as="geometry" />
        </mxCell>
        <mxCell id="EmailService" value="Email Service&lt;br&gt;Nodemailer" style="rounded=1;whiteSpace=wrap;html=1;fillColor=#f5f5f5" parent="subGraph1" vertex="1">
          <mxGeometry x="600" y="120" width="120" height="60" as="geometry" />
        </mxCell>
        <mxCell id="ScraperService" value="Scraper Service&lt;br&gt;Puppeteer" style="rounded=1;whiteSpace=wrap;html=1;fillColor=#f5f5f5" parent="subGraph1" vertex="1">
          <mxGeometry x="460" y="120" width="120" height="60" as="geometry" />
        </mxCell>
        <mxCell id="FeedbackManager" value="Feedback Manager&lt;br&gt;Express Router" style="rounded=1;whiteSpace=wrap;html=1;fillColor=#f5f5f5" parent="subGraph1" vertex="1">
          <mxGeometry x="40" y="120" width="120" height="60" as="geometry" />
        </mxCell>
        <mxCell id="subGraph1_label" value="API Components" style="edgeLabel;html=1;align=center;verticalAlign=middle;resizable=0;labelBackgroundColor=white;spacing=5" parent="subGraph4" vertex="1">
          <mxGeometry x="382" y="437.16666666666663" width="724" height="24" as="geometry" />
        </mxCell>
        <mxCell id="APIServer" value="API Server&lt;br&gt;Express.js" style="rounded=1;whiteSpace=wrap;html=1;fillColor=#f5f5f5" parent="subGraph4" vertex="1">
          <mxGeometry x="339" y="120" width="120" height="60" as="geometry" />
        </mxCell>
        <mxCell id="subGraph4_label" value="Backend Container" style="edgeLabel;html=1;align=center;verticalAlign=middle;resizable=0;labelBackgroundColor=white;spacing=5" parent="subGraph7" vertex="1">
          <mxGeometry x="134" y="333" width="1055" height="24" as="geometry" />
        </mxCell>
        <mxCell id="subGraph0" value="" style="html=1;whiteSpace=wrap;container=1;fillColor=#dae8fc;strokeColor=#6c8ebf;dashed=1;fillOpacity=20;strokeWidth=2;containerType=none;recursiveResize=0;movable=1;resizable=1;autosize=0;dropTarget=0" parent="subGraph7" vertex="1">
          <mxGeometry x="342" y="95" width="240" height="220" as="geometry" />
        </mxCell>
        <mxCell id="WebClient" value="Web Client&lt;br&gt;React" style="rounded=1;whiteSpace=wrap;html=1;fillColor=#f5f5f5" parent="subGraph0" vertex="1">
          <mxGeometry x="40" y="120" width="120" height="60" as="geometry" />
        </mxCell>
        <mxCell id="subGraph0_label" value="Frontend Container" style="edgeLabel;html=1;align=center;verticalAlign=middle;resizable=0;labelBackgroundColor=white;spacing=5" parent="subGraph7" vertex="1">
          <mxGeometry x="350" y="103" width="164" height="24" as="geometry" />
        </mxCell>
        <mxCell id="subGraph7_label" value="ReviewHub System" style="edgeLabel;html=1;align=center;verticalAlign=middle;resizable=0;labelBackgroundColor=white;spacing=5" parent="1" vertex="1">
          <mxGeometry x="128" y="210" width="1115" height="24" as="geometry" />
        </mxCell>
        <mxCell id="User" value="External User" style="rounded=1;whiteSpace=wrap;html=1;fillColor=#f5f5f5" parent="1" vertex="1">
          <mxGeometry x="384" y="12" width="120" height="60" as="geometry" />
        </mxCell>
        <mxCell id="edge-L_User_WebClient_0" style="edgeStyle=orthogonalEdgeStyle;rounded=1;orthogonalLoop=1;jettySize=auto;html=1;strokeColor=#808080;strokeWidth=2;jumpStyle=arc;jumpSize=10;spacing=15;labelBackgroundColor=white;labelBorderColor=none" parent="1" source="User" target="WebClient" edge="1">
          <mxGeometry relative="1" as="geometry" />
        </mxCell>
        <mxCell id="edge-L_User_WebClient_0_label" value="Accesses" style="edgeLabel;html=1;align=center;verticalAlign=middle;resizable=0;points=[];" parent="edge-L_User_WebClient_0" vertex="1" connectable="0">
          <mxGeometry x="-0.2" y="10" relative="1" as="geometry">
            <mxPoint as="offset" />
          </mxGeometry>
        </mxCell>
        <mxCell id="edge-L_WebClient_APIServer_1" style="edgeStyle=orthogonalEdgeStyle;rounded=1;orthogonalLoop=1;jettySize=auto;html=1;strokeColor=#808080;strokeWidth=2;jumpStyle=arc;jumpSize=10;spacing=15;labelBackgroundColor=white;labelBorderColor=none" parent="1" source="WebClient" target="APIServer" edge="1">
          <mxGeometry relative="1" as="geometry" />
        </mxCell>
        <mxCell id="edge-L_WebClient_APIServer_1_label" value="API Requests" style="edgeLabel;html=1;align=center;verticalAlign=middle;resizable=0;points=[];" parent="edge-L_WebClient_APIServer_1" vertex="1" connectable="0">
          <mxGeometry x="-0.2" y="10" relative="1" as="geometry">
            <mxPoint as="offset" />
          </mxGeometry>
        </mxCell>
        <mxCell id="edge-L_APIServer_AuthService_2" style="edgeStyle=orthogonalEdgeStyle;rounded=1;orthogonalLoop=1;jettySize=auto;html=1;strokeColor=#808080;strokeWidth=2;jumpStyle=arc;jumpSize=10;spacing=15;labelBackgroundColor=white;labelBorderColor=none" parent="1" source="APIServer" target="AuthService" edge="1">
          <mxGeometry relative="1" as="geometry" />
        </mxCell>
        <mxCell id="edge-L_APIServer_AuthService_2_label" value="Routes Requests" style="edgeLabel;html=1;align=center;verticalAlign=middle;resizable=0;points=[];" parent="edge-L_APIServer_AuthService_2" vertex="1" connectable="0">
          <mxGeometry x="-0.2" y="10" relative="1" as="geometry">
            <mxPoint as="offset" />
          </mxGeometry>
        </mxCell>
        <mxCell id="edge-L_APIServer_UserManager_3" style="edgeStyle=orthogonalEdgeStyle;rounded=1;orthogonalLoop=1;jettySize=auto;html=1;strokeColor=#808080;strokeWidth=2;jumpStyle=arc;jumpSize=10;spacing=15;labelBackgroundColor=white;labelBorderColor=none" parent="1" source="APIServer" target="UserManager" edge="1">
          <mxGeometry relative="1" as="geometry" />
        </mxCell>
        <mxCell id="edge-L_APIServer_UserManager_3_label" value="Routes Requests" style="edgeLabel;html=1;align=center;verticalAlign=middle;resizable=0;points=[];" parent="edge-L_APIServer_UserManager_3" vertex="1" connectable="0">
          <mxGeometry x="-0.2" y="10" relative="1" as="geometry">
            <mxPoint as="offset" />
          </mxGeometry>
        </mxCell>
        <mxCell id="edge-L_APIServer_EmailService_4" style="edgeStyle=orthogonalEdgeStyle;rounded=1;orthogonalLoop=1;jettySize=auto;html=1;strokeColor=#808080;strokeWidth=2;jumpStyle=arc;jumpSize=10;spacing=15;labelBackgroundColor=white;labelBorderColor=none" parent="1" source="APIServer" target="EmailService" edge="1">
          <mxGeometry relative="1" as="geometry" />
        </mxCell>
        <mxCell id="edge-L_APIServer_EmailService_4_label" value="Routes Requests" style="edgeLabel;html=1;align=center;verticalAlign=middle;resizable=0;points=[];" parent="edge-L_APIServer_EmailService_4" vertex="1" connectable="0">
          <mxGeometry x="-0.2" y="10" relative="1" as="geometry">
            <mxPoint as="offset" />
          </mxGeometry>
        </mxCell>
        <mxCell id="edge-L_APIServer_ScraperService_5" style="edgeStyle=orthogonalEdgeStyle;rounded=1;orthogonalLoop=1;jettySize=auto;html=1;strokeColor=#808080;strokeWidth=2;jumpStyle=arc;jumpSize=10;spacing=15;labelBackgroundColor=white;labelBorderColor=none" parent="1" source="APIServer" target="ScraperService" edge="1">
          <mxGeometry relative="1" as="geometry" />
        </mxCell>
        <mxCell id="edge-L_APIServer_ScraperService_5_label" value="Routes Requests" style="edgeLabel;html=1;align=center;verticalAlign=middle;resizable=0;points=[];" parent="edge-L_APIServer_ScraperService_5" vertex="1" connectable="0">
          <mxGeometry x="-0.2" y="10" relative="1" as="geometry">
            <mxPoint as="offset" />
          </mxGeometry>
        </mxCell>
        <mxCell id="edge-L_APIServer_FeedbackManager_6" style="edgeStyle=orthogonalEdgeStyle;rounded=1;orthogonalLoop=1;jettySize=auto;html=1;strokeColor=#808080;strokeWidth=2;jumpStyle=arc;jumpSize=10;spacing=15;labelBackgroundColor=white;labelBorderColor=none" parent="1" source="APIServer" target="FeedbackManager" edge="1">
          <mxGeometry relative="1" as="geometry" />
        </mxCell>
        <mxCell id="edge-L_APIServer_FeedbackManager_6_label" value="Routes Requests" style="edgeLabel;html=1;align=center;verticalAlign=middle;resizable=0;points=[];" parent="edge-L_APIServer_FeedbackManager_6" vertex="1" connectable="0">
          <mxGeometry x="-0.2" y="10" relative="1" as="geometry">
            <mxPoint as="offset" />
          </mxGeometry>
        </mxCell>
        <mxCell id="edge-L_AuthService_MySQL_7" style="edgeStyle=orthogonalEdgeStyle;rounded=1;orthogonalLoop=1;jettySize=auto;html=1;strokeColor=#808080;strokeWidth=2;jumpStyle=arc;jumpSize=10;spacing=15;labelBackgroundColor=white;labelBorderColor=none" parent="1" source="AuthService" target="MySQL" edge="1">
          <mxGeometry relative="1" as="geometry" />
        </mxCell>
        <mxCell id="edge-L_AuthService_MySQL_7_label" value="Stores/Retrieves" style="edgeLabel;html=1;align=center;verticalAlign=middle;resizable=0;points=[];" parent="edge-L_AuthService_MySQL_7" vertex="1" connectable="0">
          <mxGeometry x="-0.2" y="10" relative="1" as="geometry">
            <mxPoint as="offset" />
          </mxGeometry>
        </mxCell>
        <mxCell id="edge-L_UserManager_MySQL_8" style="edgeStyle=orthogonalEdgeStyle;rounded=1;orthogonalLoop=1;jettySize=auto;html=1;strokeColor=#808080;strokeWidth=2;jumpStyle=arc;jumpSize=10;spacing=15;labelBackgroundColor=white;labelBorderColor=none" parent="1" source="UserManager" target="MySQL" edge="1">
          <mxGeometry relative="1" as="geometry" />
        </mxCell>
        <mxCell id="edge-L_UserManager_MySQL_8_label" value="Stores/Retrieves" style="edgeLabel;html=1;align=center;verticalAlign=middle;resizable=0;points=[];" parent="edge-L_UserManager_MySQL_8" vertex="1" connectable="0">
          <mxGeometry x="-0.2" y="10" relative="1" as="geometry">
            <mxPoint as="offset" />
          </mxGeometry>
        </mxCell>
        <mxCell id="edge-L_FeedbackManager_MySQL_9" style="edgeStyle=orthogonalEdgeStyle;rounded=1;orthogonalLoop=1;jettySize=auto;html=1;strokeColor=#808080;strokeWidth=2;jumpStyle=arc;jumpSize=10;spacing=15;labelBackgroundColor=white;labelBorderColor=none" parent="1" source="FeedbackManager" target="MySQL" edge="1">
          <mxGeometry relative="1" as="geometry" />
        </mxCell>
        <mxCell id="edge-L_FeedbackManager_MySQL_9_label" value="Stores" style="edgeLabel;html=1;align=center;verticalAlign=middle;resizable=0;points=[];" parent="edge-L_FeedbackManager_MySQL_9" vertex="1" connectable="0">
          <mxGeometry x="-0.2" y="10" relative="1" as="geometry">
            <mxPoint as="offset" />
          </mxGeometry>
        </mxCell>
        <mxCell id="edge-L_ScraperService_AmazonSite_10" style="edgeStyle=orthogonalEdgeStyle;rounded=1;orthogonalLoop=1;jettySize=auto;html=1;strokeColor=#808080;strokeWidth=2;jumpStyle=arc;jumpSize=10;spacing=15;labelBackgroundColor=white;labelBorderColor=none" parent="1" source="ScraperService" target="AmazonSite" edge="1">
          <mxGeometry relative="1" as="geometry" />
        </mxCell>
        <mxCell id="edge-L_ScraperService_AmazonSite_10_label" value="Scrapes" style="edgeLabel;html=1;align=center;verticalAlign=middle;resizable=0;points=[];" parent="edge-L_ScraperService_AmazonSite_10" vertex="1" connectable="0">
          <mxGeometry x="-0.2" y="10" relative="1" as="geometry">
            <mxPoint as="offset" />
          </mxGeometry>
        </mxCell>
        <mxCell id="edge-L_ScraperService_YouTubeSite_11" style="edgeStyle=orthogonalEdgeStyle;rounded=1;orthogonalLoop=1;jettySize=auto;html=1;strokeColor=#808080;strokeWidth=2;jumpStyle=arc;jumpSize=10;spacing=15;labelBackgroundColor=white;labelBorderColor=none" parent="1" source="ScraperService" target="YouTubeSite" edge="1">
          <mxGeometry relative="1" as="geometry" />
        </mxCell>
        <mxCell id="edge-L_ScraperService_YouTubeSite_11_label" value="Scrapes" style="edgeLabel;html=1;align=center;verticalAlign=middle;resizable=0;points=[];" parent="edge-L_ScraperService_YouTubeSite_11" vertex="1" connectable="0">
          <mxGeometry x="-0.2" y="10" relative="1" as="geometry">
            <mxPoint as="offset" />
          </mxGeometry>
        </mxCell>
        <mxCell id="edge-L_ScraperService_FileStorage_12" style="edgeStyle=orthogonalEdgeStyle;rounded=1;orthogonalLoop=1;jettySize=auto;html=1;strokeColor=#808080;strokeWidth=2;jumpStyle=arc;jumpSize=10;spacing=15;labelBackgroundColor=white;labelBorderColor=none" parent="1" source="ScraperService" target="FileStorage" edge="1">
          <mxGeometry relative="1" as="geometry" />
        </mxCell>
        <mxCell id="edge-L_ScraperService_FileStorage_12_label" value="Stores" style="edgeLabel;html=1;align=center;verticalAlign=middle;resizable=0;points=[];" parent="edge-L_ScraperService_FileStorage_12" vertex="1" connectable="0">
          <mxGeometry x="-0.2" y="10" relative="1" as="geometry">
            <mxPoint as="offset" />
          </mxGeometry>
        </mxCell>
        <mxCell id="edge-L_EmailService_SMTPServer_13" style="edgeStyle=orthogonalEdgeStyle;rounded=1;orthogonalLoop=1;jettySize=auto;html=1;strokeColor=#808080;strokeWidth=2;jumpStyle=arc;jumpSize=10;spacing=15;labelBackgroundColor=white;labelBorderColor=none" parent="1" source="EmailService" target="SMTPServer" edge="1">
          <mxGeometry relative="1" as="geometry" />
        </mxCell>
        <mxCell id="edge-L_EmailService_SMTPServer_13_label" value="Sends via" style="edgeLabel;html=1;align=center;verticalAlign=middle;resizable=0;points=[];" parent="edge-L_EmailService_SMTPServer_13" vertex="1" connectable="0">
          <mxGeometry x="-0.2" y="10" relative="1" as="geometry">
            <mxPoint as="offset" />
          </mxGeometry>
        </mxCell>
        <mxCell id="edge-L_APIServer_PythonServer_14" style="edgeStyle=orthogonalEdgeStyle;rounded=1;orthogonalLoop=1;jettySize=auto;html=1;strokeColor=#808080;strokeWidth=2;jumpStyle=arc;jumpSize=10;spacing=15;labelBackgroundColor=white;labelBorderColor=none" parent="1" source="APIServer" target="PythonServer" edge="1">
          <mxGeometry relative="1" as="geometry" />
        </mxCell>
        <mxCell id="edge-L_APIServer_PythonServer_14_label" value="Sends Text" style="edgeLabel;html=1;align=center;verticalAlign=middle;resizable=0;points=[];" parent="edge-L_APIServer_PythonServer_14" vertex="1" connectable="0">
          <mxGeometry x="-0.2" y="10" relative="1" as="geometry">
            <mxPoint as="offset" />
          </mxGeometry>
        </mxCell>
        <mxCell id="edge-L_PythonServer_BERTModel_15" style="edgeStyle=orthogonalEdgeStyle;rounded=1;orthogonalLoop=1;jettySize=auto;html=1;strokeColor=#808080;strokeWidth=2;jumpStyle=arc;jumpSize=10;spacing=15;labelBackgroundColor=white;labelBorderColor=none" parent="1" source="PythonServer" target="BERTModel" edge="1">
          <mxGeometry relative="1" as="geometry" />
        </mxCell>
        <mxCell id="edge-L_PythonServer_BERTModel_15_label" value="Processes" style="edgeLabel;html=1;align=center;verticalAlign=middle;resizable=0;points=[];" parent="edge-L_PythonServer_BERTModel_15" vertex="1" connectable="0">
          <mxGeometry x="-0.2" y="10" relative="1" as="geometry">
            <mxPoint as="offset" />
          </mxGeometry>
        </mxCell>
        <mxCell id="edge-L_BERTModel_TextClassifier_16" style="edgeStyle=orthogonalEdgeStyle;rounded=1;orthogonalLoop=1;jettySize=auto;html=1;strokeColor=#808080;strokeWidth=2;jumpStyle=arc;jumpSize=10;spacing=15;labelBackgroundColor=white;labelBorderColor=none" parent="1" source="BERTModel" target="TextClassifier" edge="1">
          <mxGeometry relative="1" as="geometry" />
        </mxCell>
        <mxCell id="edge-L_BERTModel_TextClassifier_16_label" value="Classifies" style="edgeLabel;html=1;align=center;verticalAlign=middle;resizable=0;points=[];" parent="edge-L_BERTModel_TextClassifier_16" vertex="1" connectable="0">
          <mxGeometry x="-0.2" y="10" relative="1" as="geometry">
            <mxPoint as="offset" />
          </mxGeometry>
        </mxCell>
        <mxCell id="edge-L_TextClassifier_PythonServer_17" style="edgeStyle=orthogonalEdgeStyle;rounded=1;orthogonalLoop=1;jettySize=auto;html=1;strokeColor=#808080;strokeWidth=2;jumpStyle=arc;jumpSize=10;spacing=15;labelBackgroundColor=white;labelBorderColor=none" parent="1" source="TextClassifier" target="PythonServer" edge="1">
          <mxGeometry relative="1" as="geometry" />
        </mxCell>
        <mxCell id="edge-L_TextClassifier_PythonServer_17_label" value="Returns Results" style="edgeLabel;html=1;align=center;verticalAlign=middle;resizable=0;points=[];" parent="edge-L_TextClassifier_PythonServer_17" vertex="1" connectable="0">
          <mxGeometry x="-0.2" y="10" relative="1" as="geometry">
            <mxPoint as="offset" />
          </mxGeometry>
        </mxCell>
        <mxCell id="edge-L_PythonServer_APIServer_18" style="edgeStyle=orthogonalEdgeStyle;rounded=1;orthogonalLoop=1;jettySize=auto;html=1;strokeColor=#808080;strokeWidth=2;jumpStyle=arc;jumpSize=10;spacing=15;labelBackgroundColor=white;labelBorderColor=none" parent="1" source="PythonServer" target="APIServer" edge="1">
          <mxGeometry relative="1" as="geometry" />
        </mxCell>
        <mxCell id="edge-L_PythonServer_APIServer_18_label" value="Returns Analysis" style="edgeLabel;html=1;align=center;verticalAlign=middle;resizable=0;points=[];" parent="edge-L_PythonServer_APIServer_18" vertex="1" connectable="0">
          <mxGeometry x="-0.2" y="10" relative="1" as="geometry">
            <mxPoint as="offset" />
          </mxGeometry>
        </mxCell>
        <mxCell id="edge-L_FileStorage_PythonServer_19" style="edgeStyle=orthogonalEdgeStyle;rounded=1;orthogonalLoop=1;jettySize=auto;html=1;strokeColor=#808080;strokeWidth=2;jumpStyle=arc;jumpSize=10;spacing=15;labelBackgroundColor=white;labelBorderColor=none" parent="1" source="FileStorage" target="PythonServer" edge="1">
          <mxGeometry relative="1" as="geometry" />
        </mxCell>
        <mxCell id="edge-L_FileStorage_PythonServer_19_label" value="Feeds Data" style="edgeLabel;html=1;align=center;verticalAlign=middle;resizable=0;points=[];" parent="edge-L_FileStorage_PythonServer_19" vertex="1" connectable="0">
          <mxGeometry x="-0.2" y="10" relative="1" as="geometry">
            <mxPoint as="offset" />
          </mxGeometry>
        </mxCell>
        <mxCell id="edge-L_MySQL_APIServer_20" style="edgeStyle=orthogonalEdgeStyle;rounded=1;orthogonalLoop=1;jettySize=auto;html=1;strokeColor=#808080;strokeWidth=2;jumpStyle=arc;jumpSize=10;spacing=15;labelBackgroundColor=white;labelBorderColor=none" parent="1" source="MySQL" target="APIServer" edge="1">
          <mxGeometry relative="1" as="geometry" />
        </mxCell>
        <mxCell id="edge-L_MySQL_APIServer_20_label" value="Provides Data" style="edgeLabel;html=1;align=center;verticalAlign=middle;resizable=0;points=[];" parent="edge-L_MySQL_APIServer_20" vertex="1" connectable="0">
          <mxGeometry x="-0.2" y="10" relative="1" as="geometry">
            <mxPoint as="offset" />
          </mxGeometry>
        </mxCell>
        <mxCell id="subGraph5" value="" style="html=1;whiteSpace=wrap;container=1;fillColor=#dae8fc;strokeColor=#6c8ebf;dashed=1;fillOpacity=20;strokeWidth=2;containerType=none;recursiveResize=0;movable=1;resizable=1;autosize=0;dropTarget=0" parent="1" vertex="1">
          <mxGeometry x="-570" y="1400" width="380" height="240" as="geometry" />
        </mxCell>
        <mxCell id="MySQL" value="Database&lt;br&gt;MySQL" style="rounded=1;whiteSpace=wrap;html=1;fillColor=#f5f5f5" parent="subGraph5" vertex="1">
          <mxGeometry x="40" y="120" width="120" height="60" as="geometry" />
        </mxCell>
        <mxCell id="FileStorage" value="File Storage&lt;br&gt;Local CSV/JSON" style="rounded=1;whiteSpace=wrap;html=1;fillColor=#f5f5f5" parent="subGraph5" vertex="1">
          <mxGeometry x="180" y="120" width="120" height="60" as="geometry" />
        </mxCell>
        <mxCell id="subGraph6" value="" style="html=1;whiteSpace=wrap;container=1;fillColor=#dae8fc;strokeColor=#6c8ebf;dashed=1;fillOpacity=20;strokeWidth=2;containerType=none;recursiveResize=0;movable=1;resizable=1;autosize=0;dropTarget=0" parent="1" vertex="1">
          <mxGeometry x="1280" y="1434" width="520" height="220" as="geometry" />
        </mxCell>
        <mxCell id="SMTPServer" value="SMTP Server&lt;br&gt;Gmail" style="rounded=1;whiteSpace=wrap;html=1;fillColor=#f5f5f5" parent="subGraph6" vertex="1">
          <mxGeometry x="320" y="120" width="120" height="60" as="geometry" />
        </mxCell>
        <mxCell id="AmazonSite" value="Amazon Platform&lt;br&gt;Web" style="rounded=1;whiteSpace=wrap;html=1;fillColor=#f5f5f5" parent="subGraph6" vertex="1">
          <mxGeometry x="180" y="120" width="120" height="60" as="geometry" />
        </mxCell>
        <mxCell id="YouTubeSite" value="YouTube Platform&lt;br&gt;Web" style="rounded=1;whiteSpace=wrap;html=1;fillColor=#f5f5f5" parent="subGraph6" vertex="1">
          <mxGeometry x="40" y="120" width="120" height="60" as="geometry" />
        </mxCell>
        <mxCell id="eK7Xl8W-Q0LYb2Pve7hI-1" value="" style="html=1;whiteSpace=wrap;container=1;fillColor=#dae8fc;strokeColor=#6c8ebf;dashed=1;fillOpacity=20;strokeWidth=2;containerType=none;recursiveResize=0;movable=1;resizable=1;autosize=0;dropTarget=0" vertex="1" parent="1">
          <mxGeometry x="1300" y="1426" width="520" height="220" as="geometry" />
        </mxCell>
        <mxCell id="eK7Xl8W-Q0LYb2Pve7hI-2" value="SMTP Server&lt;br&gt;Gmail" style="rounded=1;whiteSpace=wrap;html=1;fillColor=#f5f5f5" vertex="1" parent="eK7Xl8W-Q0LYb2Pve7hI-1">
          <mxGeometry x="320" y="120" width="120" height="60" as="geometry" />
        </mxCell>
        <mxCell id="eK7Xl8W-Q0LYb2Pve7hI-3" value="Amazon Platform&lt;br&gt;Web" style="rounded=1;whiteSpace=wrap;html=1;fillColor=#f5f5f5" vertex="1" parent="eK7Xl8W-Q0LYb2Pve7hI-1">
          <mxGeometry x="180" y="120" width="120" height="60" as="geometry" />
        </mxCell>
        <mxCell id="eK7Xl8W-Q0LYb2Pve7hI-4" value="YouTube Platform&lt;br&gt;Web" style="rounded=1;whiteSpace=wrap;html=1;fillColor=#f5f5f5" vertex="1" parent="eK7Xl8W-Q0LYb2Pve7hI-1">
          <mxGeometry x="40" y="120" width="120" height="60" as="geometry" />
        </mxCell>
        <mxCell id="eK7Xl8W-Q0LYb2Pve7hI-5" value="" style="html=1;whiteSpace=wrap;container=1;fillColor=#dae8fc;strokeColor=#6c8ebf;dashed=1;fillOpacity=20;strokeWidth=2;containerType=none;recursiveResize=0;movable=1;resizable=1;autosize=0;dropTarget=0" vertex="1" parent="1">
          <mxGeometry x="60" y="40" width="1131" height="1095" as="geometry" />
        </mxCell>
        <mxCell id="eK7Xl8W-Q0LYb2Pve7hI-6" value="" style="html=1;whiteSpace=wrap;container=1;fillColor=#dae8fc;strokeColor=#6c8ebf;dashed=1;fillOpacity=20;strokeWidth=2;containerType=none;recursiveResize=0;movable=1;resizable=1;autosize=0;dropTarget=0" vertex="1" parent="eK7Xl8W-Q0LYb2Pve7hI-5">
          <mxGeometry x="73" y="225" width="300" height="535" as="geometry" />
        </mxCell>
        <mxCell id="eK7Xl8W-Q0LYb2Pve7hI-7" value="" style="html=1;whiteSpace=wrap;container=1;fillColor=#dae8fc;strokeColor=#6c8ebf;dashed=1;fillOpacity=20;strokeWidth=2;containerType=none;recursiveResize=0;movable=1;resizable=1;autosize=0;dropTarget=0" vertex="1" parent="eK7Xl8W-Q0LYb2Pve7hI-6">
          <mxGeometry x="63" y="195" width="240" height="320" as="geometry" />
        </mxCell>
        <mxCell id="eK7Xl8W-Q0LYb2Pve7hI-8" value="BERT Model&lt;br&gt;TensorFlow" style="rounded=1;whiteSpace=wrap;html=1;fillColor=#f5f5f5" vertex="1" parent="eK7Xl8W-Q0LYb2Pve7hI-7">
          <mxGeometry x="40" y="120" width="120" height="60" as="geometry" />
        </mxCell>
        <mxCell id="eK7Xl8W-Q0LYb2Pve7hI-9" value="Text Classifier&lt;br&gt;Python" style="rounded=1;whiteSpace=wrap;html=1;fillColor=#f5f5f5" vertex="1" parent="eK7Xl8W-Q0LYb2Pve7hI-7">
          <mxGeometry x="40" y="220" width="120" height="60" as="geometry" />
        </mxCell>
        <mxCell id="eK7Xl8W-Q0LYb2Pve7hI-10" value="ML Components" style="edgeLabel;html=1;align=center;verticalAlign=middle;resizable=0;labelBackgroundColor=white;spacing=5" vertex="1" parent="eK7Xl8W-Q0LYb2Pve7hI-6">
          <mxGeometry x="71" y="203" width="164" height="24" as="geometry" />
        </mxCell>
        <mxCell id="eK7Xl8W-Q0LYb2Pve7hI-11" value="ML Server&lt;br&gt;Python/Flask" style="rounded=1;whiteSpace=wrap;html=1;fillColor=#f5f5f5" vertex="1" parent="eK7Xl8W-Q0LYb2Pve7hI-6">
          <mxGeometry x="93" y="120" width="120" height="60" as="geometry" />
        </mxCell>
        <mxCell id="eK7Xl8W-Q0LYb2Pve7hI-12" value="ML Service Container" style="edgeLabel;html=1;align=center;verticalAlign=middle;resizable=0;labelBackgroundColor=white;spacing=5" vertex="1" parent="eK7Xl8W-Q0LYb2Pve7hI-5">
          <mxGeometry x="81" y="233" width="224" height="24" as="geometry" />
        </mxCell>
        <mxCell id="eK7Xl8W-Q0LYb2Pve7hI-13" value="" style="html=1;whiteSpace=wrap;container=1;fillColor=#dae8fc;strokeColor=#6c8ebf;dashed=1;fillOpacity=20;strokeWidth=2;containerType=none;recursiveResize=0;movable=1;resizable=1;autosize=0;dropTarget=0" vertex="1" parent="eK7Xl8W-Q0LYb2Pve7hI-5">
          <mxGeometry x="374" y="429.16666666666663" width="800" height="220" as="geometry" />
        </mxCell>
        <mxCell id="eK7Xl8W-Q0LYb2Pve7hI-14" value="Authentication Service&lt;br&gt;JWT" style="rounded=1;whiteSpace=wrap;html=1;fillColor=#f5f5f5" vertex="1" parent="eK7Xl8W-Q0LYb2Pve7hI-13">
          <mxGeometry x="320" y="120" width="120" height="60" as="geometry" />
        </mxCell>
        <mxCell id="eK7Xl8W-Q0LYb2Pve7hI-15" value="User Manager&lt;br&gt;Express Router" style="rounded=1;whiteSpace=wrap;html=1;fillColor=#f5f5f5" vertex="1" parent="eK7Xl8W-Q0LYb2Pve7hI-13">
          <mxGeometry x="180" y="120" width="120" height="60" as="geometry" />
        </mxCell>
        <mxCell id="eK7Xl8W-Q0LYb2Pve7hI-16" value="Email Service&lt;br&gt;Nodemailer" style="rounded=1;whiteSpace=wrap;html=1;fillColor=#f5f5f5" vertex="1" parent="eK7Xl8W-Q0LYb2Pve7hI-13">
          <mxGeometry x="600" y="120" width="120" height="60" as="geometry" />
        </mxCell>
        <mxCell id="eK7Xl8W-Q0LYb2Pve7hI-17" value="Scraper Service&lt;br&gt;Puppeteer" style="rounded=1;whiteSpace=wrap;html=1;fillColor=#f5f5f5" vertex="1" parent="eK7Xl8W-Q0LYb2Pve7hI-13">
          <mxGeometry x="460" y="120" width="120" height="60" as="geometry" />
        </mxCell>
        <mxCell id="eK7Xl8W-Q0LYb2Pve7hI-18" value="Feedback Manager&lt;br&gt;Express Router" style="rounded=1;whiteSpace=wrap;html=1;fillColor=#f5f5f5" vertex="1" parent="eK7Xl8W-Q0LYb2Pve7hI-13">
          <mxGeometry x="40" y="120" width="120" height="60" as="geometry" />
        </mxCell>
        <mxCell id="eK7Xl8W-Q0LYb2Pve7hI-19" value="API Components" style="edgeLabel;html=1;align=center;verticalAlign=middle;resizable=0;labelBackgroundColor=white;spacing=5" vertex="1" parent="eK7Xl8W-Q0LYb2Pve7hI-5">
          <mxGeometry x="382" y="437.16666666666663" width="724" height="24" as="geometry" />
        </mxCell>
        <mxCell id="eK7Xl8W-Q0LYb2Pve7hI-20" value="API Server&lt;br&gt;Express.js" style="rounded=1;whiteSpace=wrap;html=1;fillColor=#f5f5f5" vertex="1" parent="eK7Xl8W-Q0LYb2Pve7hI-5">
          <mxGeometry x="339" y="120" width="120" height="60" as="geometry" />
        </mxCell>
      </root>
    </mxGraphModel>
  </diagram>
</mxfile>
